<svg width="89" height="27" viewBox="0 0 89 27" fill="none" xmlns="http://www.w3.org/2000/svg">
<rect x="1" y="1" width="87" height="25" stroke="#6ACD68" stroke-width="2"/>
<path d="M24.573 18V9.329H23.494V18H24.573ZM31.7783 18V13.593C31.7783 12.228 31.0893 11.565 29.7763 11.565C28.8403 11.565 27.9823 12.111 27.5403 12.631V11.721H26.5653V18H27.5403V13.411C27.9043 12.904 28.6323 12.436 29.3993 12.436C30.2443 12.436 30.8033 12.787 30.8033 13.892V18H31.7783ZM39.0661 18.156C40.6911 18.156 41.5361 17.311 41.5361 16.258C41.5361 13.814 37.6491 14.724 37.6491 13.346C37.6491 12.787 38.1821 12.358 39.0401 12.358C39.8461 12.358 40.5351 12.696 40.9121 13.151L41.3671 12.475C40.8601 11.968 40.1061 11.565 39.0401 11.565C37.5451 11.565 36.7001 12.397 36.7001 13.372C36.7001 15.699 40.5871 14.763 40.5871 16.284C40.5871 16.908 40.0671 17.363 39.1051 17.363C38.2471 17.363 37.4541 16.947 37.0381 16.466L36.5311 17.168C37.1681 17.844 38.0391 18.156 39.0661 18.156ZM44.706 18.156C45.278 18.156 45.629 17.987 45.876 17.753L45.59 17.025C45.46 17.168 45.2 17.285 44.927 17.285C44.498 17.285 44.29 16.947 44.29 16.479V12.579H45.564V11.721H44.29V10.005H43.315V11.721H42.275V12.579H43.315V16.687C43.315 17.623 43.783 18.156 44.706 18.156ZM49.6843 18.156C51.5953 18.156 52.7913 16.674 52.7913 14.854C52.7913 13.034 51.5953 11.565 49.6843 11.565C47.7733 11.565 46.5773 13.034 46.5773 14.854C46.5773 16.674 47.7733 18.156 49.6843 18.156ZM49.6843 17.285C48.3453 17.285 47.5913 16.141 47.5913 14.854C47.5913 13.58 48.3453 12.436 49.6843 12.436C51.0233 12.436 51.7643 13.58 51.7643 14.854C51.7643 16.141 51.0233 17.285 49.6843 17.285ZM57.1498 18.156C58.2938 18.156 58.9698 17.688 59.4508 17.064L58.8008 16.466C58.3848 17.025 57.8518 17.285 57.2018 17.285C55.8628 17.285 55.0308 16.245 55.0308 14.854C55.0308 13.463 55.8628 12.436 57.2018 12.436C57.8518 12.436 58.3848 12.683 58.8008 13.255L59.4508 12.657C58.9698 12.033 58.2938 11.565 57.1498 11.565C55.2778 11.565 54.0168 12.995 54.0168 14.854C54.0168 16.726 55.2778 18.156 57.1498 18.156ZM66.3423 18L63.5473 14.568L66.3293 11.721H65.0943L61.7923 15.062V9.329H60.8173V18H61.7923V16.206L62.8323 15.179L65.0943 18H66.3423Z" fill="#6ACD68"/>
</svg>
