<svg width="328" height="143" viewBox="0 0 328 143" fill="none" xmlns="http://www.w3.org/2000/svg">
<rect x="58.4468" y="26.7912" width="266.752" height="88.5438" fill="#F7F7F7" stroke="#009EFF" stroke-width="5.60404"/>
<path d="M107.448 42.6882L107.448 41.0705L106.047 40.2616L56.7547 11.8028L55.3537 10.9939L53.9527 11.8028L4.66058 40.2616L3.25957 41.0705L3.25957 42.6882L3.25958 99.6059L3.25958 101.224L4.66059 102.033L53.9527 130.491L55.3537 131.3L56.7547 130.491L106.047 102.033L107.448 101.224L107.448 99.6059L107.448 42.6882Z" fill="#009EFF" stroke="#F7F7F7" stroke-width="5.60404"/>
<path d="M48.4852 84.3382V76.7271H53.2396V69.8331H48.4852V47.5515H37.6497L22.9998 70.5501V76.7271H40.635V84.3382H48.4852ZM40.635 69.8331H30.6841L40.635 54.5007V69.8331Z" fill="white"/>
<path d="M71.7416 85C82.2454 85 86.9998 75.4586 86.9998 65.9724C86.9998 56.4862 82.2454 47 71.7416 47C61.1826 47 56.4835 56.4862 56.4835 65.9724C56.4835 75.4586 61.1826 85 71.7416 85ZM71.7416 78.0508C66.4345 78.0508 64.4443 72.7562 64.4443 65.9724C64.4443 59.1887 66.4345 53.9492 71.7416 53.9492C76.9935 53.9492 78.9837 59.1887 78.9837 65.9724C78.9837 72.7562 76.9935 78.0508 71.7416 78.0508Z" fill="white"/>
<path d="M48.2393 98V91.718C48.2393 89.936 47.2853 89.09 45.6833 89.09C44.3513 89.09 43.1993 89.882 42.6953 90.674C42.3713 89.684 41.5613 89.09 40.2833 89.09C38.9513 89.09 37.7993 89.918 37.4393 90.44V89.306H35.1533V98H37.4393V92.15C37.7813 91.664 38.4473 91.124 39.2393 91.124C40.1753 91.124 40.5353 91.7 40.5353 92.51V98H42.8393V92.132C43.1633 91.664 43.8293 91.124 44.6393 91.124C45.5753 91.124 45.9353 91.7 45.9353 92.51V98H48.2393ZM51.6154 88.37C52.3714 88.37 52.9834 87.758 52.9834 87.002C52.9834 86.246 52.3714 85.652 51.6154 85.652C50.8774 85.652 50.2474 86.246 50.2474 87.002C50.2474 87.758 50.8774 88.37 51.6154 88.37ZM52.7674 98V89.306H50.4814V98H52.7674ZM57.3201 98V85.994H55.0341V98H57.3201ZM63.6729 98.216C65.0229 98.216 66.3909 97.802 67.2549 97.01L66.2469 95.534C65.6889 96.074 64.6629 96.398 63.9249 96.398C62.4489 96.398 61.5669 95.48 61.4229 94.382H67.8849V93.878C67.8849 91.034 66.1209 89.09 63.5289 89.09C60.8829 89.09 59.0289 91.124 59.0289 93.644C59.0289 96.434 61.0269 98.216 63.6729 98.216ZM65.6709 92.834H61.3869C61.4949 91.97 62.1069 90.908 63.5289 90.908C65.0409 90.908 65.6169 92.006 65.6709 92.834ZM72.6681 98.216C75.0801 98.216 76.4301 97.01 76.4301 95.426C76.4301 91.916 71.2821 92.996 71.2821 91.7C71.2821 91.214 71.8221 90.836 72.6501 90.836C73.7121 90.836 74.7021 91.286 75.2241 91.844L76.1421 90.278C75.2781 89.594 74.1081 89.09 72.6321 89.09C70.3461 89.09 69.0681 90.368 69.0681 91.826C69.0681 95.246 74.2341 94.076 74.2341 95.516C74.2341 96.056 73.7661 96.452 72.7761 96.452C71.6961 96.452 70.4001 95.858 69.7701 95.264L68.7801 96.866C69.6981 97.712 71.1561 98.216 72.6681 98.216Z" fill="white"/>
<path d="M127.584 63.6181C132.659 63.6181 135.109 60.7931 135.109 56.6431V46.6431H131.484V56.5431C131.484 58.8681 130.159 60.4681 127.584 60.4681C125.009 60.4681 123.659 58.8681 123.659 56.5431V46.6431H120.059V56.6681C120.059 60.7681 122.509 63.6181 127.584 63.6181ZM141.944 63.3181V57.3931H146.194C149.794 57.3931 151.794 54.9181 151.794 52.0181C151.794 49.0931 149.819 46.6431 146.194 46.6431H138.394V63.3181H141.944ZM145.719 54.2681H141.944V49.7681H145.719C147.119 49.7681 148.169 50.6181 148.169 52.0181C148.169 53.3931 147.119 54.2681 145.719 54.2681ZM167.816 63.3181V49.7681H172.666V46.6431H159.366V49.7681H164.241V63.3181H167.816ZM182.231 63.6181C187.281 63.6181 190.956 60.0181 190.956 54.9931C190.956 49.9681 187.281 46.3681 182.231 46.3681C177.206 46.3681 173.531 49.9681 173.531 54.9931C173.531 60.0181 177.206 63.6181 182.231 63.6181ZM182.231 60.4681C179.156 60.4681 177.181 58.0931 177.181 54.9931C177.181 51.8681 179.156 49.5181 182.231 49.5181C185.306 49.5181 187.306 51.8681 187.306 54.9931C187.306 58.0931 185.306 60.4681 182.231 60.4681ZM210.344 63.3181V59.8681H212.494V56.7431H210.344V46.6431H205.444L198.819 57.0681V59.8681H206.794V63.3181H210.344ZM206.794 56.7431H202.294L206.794 49.7931V56.7431ZM220.861 63.6181C225.611 63.6181 227.761 59.2931 227.761 54.9931C227.761 50.6931 225.611 46.3931 220.861 46.3931C216.086 46.3931 213.961 50.6931 213.961 54.9931C213.961 59.2931 216.086 63.6181 220.861 63.6181ZM220.861 60.4681C218.461 60.4681 217.561 58.0681 217.561 54.9931C217.561 51.9181 218.461 49.5431 220.861 49.5431C223.236 49.5431 224.136 51.9181 224.136 54.9931C224.136 58.0681 223.236 60.4681 220.861 60.4681ZM254.735 63.3181V46.6431H249.735L245.685 56.7181L241.635 46.6431H236.66V63.3181H240.21V51.6431L244.91 63.3181H246.46L251.16 51.6431V63.3181H254.735ZM261.597 63.3181V46.6431H258.047V63.3181H261.597ZM275.507 63.3181V60.1931H268.457V46.6431H264.907V63.3181H275.507ZM289.793 63.3181V60.1931H281.543V56.4181H289.618V53.2931H281.543V49.7681H289.793V46.6431H277.993V63.3181H289.793ZM298.493 63.6181C302.993 63.6181 305.168 61.3181 305.168 58.2681C305.168 52.0431 295.593 53.8181 295.593 51.1681C295.593 50.1681 296.443 49.4931 297.968 49.4931C299.668 49.4931 301.468 50.0681 302.818 51.3181L304.793 48.7181C303.143 47.1931 300.943 46.3931 298.293 46.3931C294.368 46.3931 291.968 48.6931 291.968 51.4681C291.968 57.7431 301.568 55.7181 301.568 58.6681C301.568 59.6181 300.618 60.5181 298.668 60.5181C296.368 60.5181 294.543 59.4931 293.368 58.2681L291.443 60.9681C292.993 62.5431 295.293 63.6181 298.493 63.6181ZM127.959 93.6181C133.009 93.6181 136.684 90.0181 136.684 84.9931C136.684 79.9681 133.009 76.3681 127.959 76.3681C122.934 76.3681 119.259 79.9681 119.259 84.9931C119.259 90.0181 122.934 93.6181 127.959 93.6181ZM127.959 90.4681C124.884 90.4681 122.909 88.0931 122.909 84.9931C122.909 81.8681 124.884 79.5181 127.959 79.5181C131.034 79.5181 133.034 81.8681 133.034 84.9931C133.034 88.0931 131.034 90.4681 127.959 90.4681ZM142.725 93.3181V86.4181H150.8V83.2931H142.725V79.7681H150.975V76.6431H139.175V93.3181H142.725ZM173.353 93.3181L169.603 86.9681C171.403 86.5431 173.253 84.9681 173.253 82.0181C173.253 78.9181 171.128 76.6431 167.653 76.6431H159.853V93.3181H163.403V87.3931H166.003L169.278 93.3181H173.353ZM167.128 84.2681H163.403V79.7681H167.128C168.553 79.7681 169.628 80.6181 169.628 82.0181C169.628 83.4181 168.553 84.2681 167.128 84.2681ZM191.468 93.3181L185.043 76.6431H180.593L174.143 93.3181H178.193L179.243 90.4931H186.393L187.418 93.3181H191.468ZM185.418 87.3681H180.218L182.818 80.1931L185.418 87.3681ZM207.933 93.3181V76.6431H204.383V87.1181L196.658 76.6431H193.008V93.3181H196.558V82.4431L204.508 93.3181H207.933ZM219.296 93.6431C222.321 93.6431 224.696 92.3931 226.396 90.4931V84.0931H218.446V87.1931H222.846V89.1931C222.171 89.8181 220.771 90.4681 219.296 90.4681C216.271 90.4681 214.071 88.1431 214.071 84.9931C214.071 81.8431 216.271 79.5181 219.296 79.5181C221.071 79.5181 222.496 80.5181 223.246 81.6931L226.196 80.0931C224.946 78.1181 222.771 76.3681 219.296 76.3681C214.421 76.3681 210.421 79.7181 210.421 84.9931C210.421 90.2431 214.421 93.6431 219.296 93.6431ZM241.014 93.3181V90.1931H232.764V86.4181H240.839V83.2931H232.764V79.7681H241.014V76.6431H229.214V93.3181H241.014Z" fill="#323941"/>
</svg>
