<svg width="23" height="21" viewBox="0 0 23 21" fill="none" xmlns="http://www.w3.org/2000/svg">
<g clip-path="url(#clip0_405_6427)">
<path d="M6.54542 20.1818C7.44916 20.1818 8.18178 19.4492 8.18178 18.5455C8.18178 17.6417 7.44916 16.9091 6.54542 16.9091C5.64168 16.9091 4.90906 17.6417 4.90906 18.5455C4.90906 19.4492 5.64168 20.1818 6.54542 20.1818Z" stroke="#323941" stroke-width="1.27585" stroke-linecap="round" stroke-linejoin="round"/>
<path d="M16.3637 20.1818C17.2674 20.1818 18 19.4492 18 18.5455C18 17.6417 17.2674 16.9091 16.3637 16.9091C15.4599 16.9091 14.7273 17.6417 14.7273 18.5455C14.7273 19.4492 15.4599 20.1818 16.3637 20.1818Z" stroke="#323941" stroke-width="1.27585" stroke-linecap="round" stroke-linejoin="round"/>
<path d="M4.63915 6.27273H18.8182L17.4437 13.1373C17.3689 13.514 17.164 13.8523 16.8648 14.0932C16.5656 14.334 16.1913 14.4619 15.8073 14.4546H7.15915C6.75962 14.4579 6.37265 14.315 6.07122 14.0528C5.76978 13.7905 5.57471 13.4271 5.52278 13.0309L4.27915 3.60546C4.22757 3.21211 4.03486 2.85089 3.73686 2.58901C3.43886 2.32713 3.05586 2.18242 2.65915 2.18182H0.818237" stroke="#323941" stroke-width="1.27585" stroke-linecap="round" stroke-linejoin="round"/>
</g>
<circle cx="18.5455" cy="4.63634" r="4.36364" fill="#009EFF"/>
<path d="M19.1428 7V1.65767H18.5581L17.2205 3.0353L17.621 3.44379L18.478 2.53872V7H19.1428Z" fill="white"/>
<defs>
<clipPath id="clip0_405_6427">
<rect width="19.6364" height="19.6364" fill="white" transform="translate(0 1.36365)"/>
</clipPath>
</defs>
</svg>
